<svg class="dia" lang="ar" viewBox="0 0 900 362" width="900" height="362" role="img" aria-label="من أين تأتي الصفوف وإلى أين تذهب. المراحل التي يسمّي سطر Writes فيها الجدول، والأداة التي تكتبه، والملف القانوني مع CSV، ثم صفحة المراجعة." xmlns="http://www.w3.org/2000/svg"><style>svg{font-family:"Noto Naskh Arabic", "Segoe UI", Tahoma, serif;color:#efedf7;direction:rtl}text{fill:currentColor}.box{fill:#272435;stroke:#35324a;stroke-width:1.2}.box.acc{fill:#2a2545;stroke:#a78bfa}.box.good{fill:#23322e;stroke:#3fb950}.box.bad{fill:#38222d;stroke:#f85149}.box.warn{fill:#3a312c;stroke:#e3b341}.box.frame{fill:none;stroke:#35324a;stroke-dasharray:5 4}.frame .lbl{fill:#aba7c2}.edge{fill:none;stroke:#aba7c2;stroke-width:1.4}.edge.acc{stroke:#a78bfa;stroke-width:1.8}.edge.loop{stroke-dasharray:4 3}.lbl{font-size:12px}.lbl.small{font-size:10.5px;fill:#aba7c2;paint-order:stroke fill;stroke:#1e1c29;stroke-width:4px;stroke-linejoin:round}.lbl.strong{font-weight:600;font-size:13px}.num{font-family:Consolas, Menlo, monospace;font-size:11px;direction:ltr;unicode-bidi:isolate}.arrow{fill:#aba7c2}.arrow.acc{fill:#a78bfa}</style><defs><marker id="ar-data-narrative-document-ar" viewBox="0 0 10 10" refX="9" refY="5" markerWidth="7" markerHeight="7" orient="auto-start-reverse"><path d="M0 0L10 5L0 10z" class="arrow"/></marker><marker id="ara-data-narrative-document-ar" viewBox="0 0 10 10" refX="9" refY="5" markerWidth="7" markerHeight="7" orient="auto-start-reverse"><path d="M0 0L10 5L0 10z" class="arrow acc"/></marker></defs><g class="frame"><rect class="box frame" x="610.0" y="10" width="280" height="350" rx="8"/><text class="lbl small" x="880.0" y="23.0" text-anchor="start" dominant-baseline="middle">المراحل التي تكتبه</text></g><path class="edge  draw" marker-end="url(#ar-data-narrative-document-ar)" d="M620.0 60.0 L590.7 60.0 L590.7 151.0 L580.0 151.0"/><path class="edge  draw" marker-end="url(#ar-data-narrative-document-ar)" d="M620.0 112.0 L600.0 112.0 L600.0 163.0 L580.0 163.0"/><path class="edge  draw" marker-end="url(#ar-data-narrative-document-ar)" d="M620.0 164.0 L609.3 164.0 L609.3 175.0 L580.0 175.0"/><path class="edge  draw" marker-end="url(#ar-data-narrative-document-ar)" d="M620.0 216.0 L604.7 216.0 L604.7 187.0 L580.0 187.0"/><path class="edge  draw" marker-end="url(#ar-data-narrative-document-ar)" d="M620.0 268.0 L595.3 268.0 L595.3 199.0 L580.0 199.0"/><path class="edge  draw" marker-end="url(#ar-data-narrative-document-ar)" d="M620.0 320.0 L586.0 320.0 L586.0 211.0 L580.0 211.0"/><path class="edge  draw" marker-end="url(#ar-data-narrative-document-ar)" d="M400.0 181.0 L370.0 181.0"/><path class="edge  draw" marker-end="url(#ar-data-narrative-document-ar)" d="M140.0 181.0 L110.0 181.0"/><text class="lbl small" x="125.0" y="151.0" text-anchor="middle" dominant-baseline="middle">⁦export_html⁩</text><g data-key="stage-1"><rect class="box acc pill" x="620.0" y="40" width="260" height="40" rx="20.0"/><text class="lbl small" x="750.0" y="54.0" text-anchor="middle" dominant-baseline="middle">الالتقاط</text><text class="lbl small" x="750.0" y="66.0" text-anchor="middle" dominant-baseline="middle">⁦1⁩</text></g><g data-key="stage-8"><rect class="box acc pill" x="620.0" y="92" width="260" height="40" rx="20.0"/><text class="lbl small" x="750.0" y="106.0" text-anchor="middle" dominant-baseline="middle">تحديد النطاق</text><text class="lbl small" x="750.0" y="118.0" text-anchor="middle" dominant-baseline="middle">⁦8⁩</text></g><g data-key="stage-9"><rect class="box acc pill" x="620.0" y="144" width="260" height="40" rx="20.0"/><text class="lbl small" x="750.0" y="158.0" text-anchor="middle" dominant-baseline="middle">تخطيط البحث</text><text class="lbl small" x="750.0" y="170.0" text-anchor="middle" dominant-baseline="middle">⁦9⁩</text></g><g data-key="stage-10"><rect class="box acc pill" x="620.0" y="196" width="260" height="40" rx="20.0"/><text class="lbl small" x="750.0" y="210.0" text-anchor="middle" dominant-baseline="middle">استكشاف المعمارية</text><text class="lbl small" x="750.0" y="222.0" text-anchor="middle" dominant-baseline="middle">⁦10⁩</text></g><g data-key="stage-11"><rect class="box acc pill" x="620.0" y="248" width="260" height="40" rx="20.0"/><text class="lbl small" x="750.0" y="262.0" text-anchor="middle" dominant-baseline="middle">مقارنة الخيارات</text><text class="lbl small" x="750.0" y="274.0" text-anchor="middle" dominant-baseline="middle">⁦11⁩</text></g><g data-key="stage-17"><rect class="box acc pill" x="620.0" y="300" width="260" height="40" rx="20.0"/><text class="lbl small" x="750.0" y="314.0" text-anchor="middle" dominant-baseline="middle">توليد المصنوعات</text><text class="lbl small" x="750.0" y="326.0" text-anchor="middle" dominant-baseline="middle">⁦17⁩</text></g><g data-key="tool"><rect class="box strong" x="400.0" y="145.0" width="180" height="72" rx="6"/><text class="lbl strong" x="490.0" y="174.0" text-anchor="middle" dominant-baseline="middle">يكتبها</text><text class="lbl strong" x="490.0" y="188.0" text-anchor="middle" dominant-baseline="middle">⁦entity_upsert⁩</text></g><g data-key="data"><rect class="box " x="140.0" y="159.0" width="230" height="44" rx="6"/><text class="lbl num small" x="255.0" y="175.0" text-anchor="middle" dominant-baseline="middle" style="direction:ltr;unicode-bidi:isolate">⁦data/narrative_documents.jsonl⁩</text><text class="lbl num small" x="255.0" y="187.0" text-anchor="middle" dominant-baseline="middle" style="direction:ltr;unicode-bidi:isolate">⁦csv/narrative_documents.csv⁩</text></g><g data-key="review"><rect class="box pill" x="10.0" y="159.0" width="100" height="44" rx="22.0"/><text class="lbl num small" x="60.0" y="175.0" text-anchor="middle" dominant-baseline="middle" style="direction:ltr;unicode-bidi:isolate">⁦review.html⁩</text><text class="lbl num small" x="60.0" y="187.0" text-anchor="middle" dominant-baseline="middle" style="direction:ltr;unicode-bidi:isolate">⁦#registers⁩</text></g></svg>
