<svg class="dia" lang="ar" viewBox="0 0 860 236" width="860" height="236" role="img" aria-label="ما تحتاجه الأداة قبل أن تعمل، وما تقرأه، وما تكتبه. كل ادّعاء مثبَّت بسطر من الخادم." xmlns="http://www.w3.org/2000/svg"><style>svg{font-family:"Noto Naskh Arabic", "Segoe UI", Tahoma, serif;color:#efedf7;direction:rtl}text{fill:currentColor}.box{fill:#272435;stroke:#35324a;stroke-width:1.2}.box.acc{fill:#2a2545;stroke:#a78bfa}.box.good{fill:#23322e;stroke:#3fb950}.box.bad{fill:#38222d;stroke:#f85149}.box.warn{fill:#3a312c;stroke:#e3b341}.box.frame{fill:none;stroke:#35324a;stroke-dasharray:5 4}.frame .lbl{fill:#aba7c2}.edge{fill:none;stroke:#aba7c2;stroke-width:1.4}.edge.acc{stroke:#a78bfa;stroke-width:1.8}.edge.loop{stroke-dasharray:4 3}.lbl{font-size:12px}.lbl.small{font-size:10.5px;fill:#aba7c2;paint-order:stroke fill;stroke:#1e1c29;stroke-width:4px;stroke-linejoin:round}.lbl.strong{font-weight:600;font-size:13px}.num{font-family:Consolas, Menlo, monospace;font-size:11px;direction:ltr;unicode-bidi:isolate}.arrow{fill:#aba7c2}.arrow.acc{fill:#a78bfa}</style><defs><marker id="ar-fx-entity_upsert-ar" viewBox="0 0 10 10" refX="9" refY="5" markerWidth="7" markerHeight="7" orient="auto-start-reverse"><path d="M0 0L10 5L0 10z" class="arrow"/></marker><marker id="ara-fx-entity_upsert-ar" viewBox="0 0 10 10" refX="9" refY="5" markerWidth="7" markerHeight="7" orient="auto-start-reverse"><path d="M0 0L10 5L0 10z" class="arrow acc"/></marker></defs><g class="frame"><rect class="box frame" x="610.0" y="10" width="240" height="108" rx="8"/><text class="lbl small" x="840.0" y="23.0" text-anchor="start" dominant-baseline="middle">تقرأ</text></g><g class="frame"><rect class="box frame" x="20.0" y="10" width="240" height="216" rx="8"/><text class="lbl small" x="250.0" y="23.0" text-anchor="start" dominant-baseline="middle">تكتب</text></g><g class="frame"><rect class="box frame" x="320.0" y="82" width="230" height="72" rx="8"/><text class="lbl small" x="540.0" y="95.0" text-anchor="start" dominant-baseline="middle">تحتاج</text></g><path class="edge  draw" marker-end="url(#ar-fx-entity_upsert-ar)" d="M620.0 54.0 L554.0 54.0 L554.0 39.0 L540.0 39.0"/><path class="edge  draw" marker-end="url(#ar-fx-entity_upsert-ar)" d="M620.0 90.0 L546.0 90.0 L546.0 53.0 L540.0 53.0"/><path class="edge  draw" marker-end="url(#ar-fx-entity_upsert-ar)" d="M330.0 30.0 L292.0 30.0 L292.0 54.0 L250.0 54.0"/><path class="edge  draw" marker-end="url(#ar-fx-entity_upsert-ar)" d="M330.0 38.0 L300.0 38.0 L300.0 90.0 L250.0 90.0"/><path class="edge  draw" marker-end="url(#ar-fx-entity_upsert-ar)" d="M330.0 46.0 L308.0 46.0 L308.0 126.0 L250.0 126.0"/><path class="edge  draw" marker-end="url(#ar-fx-entity_upsert-ar)" d="M330.0 54.0 L316.0 54.0 L316.0 162.0 L250.0 162.0"/><path class="edge  draw" marker-end="url(#ar-fx-entity_upsert-ar)" d="M330.0 62.0 L324.0 62.0 L324.0 198.0 L250.0 198.0"/><g data-key="r0"><rect class="box pill" x="620.0" y="40" width="220" height="28" rx="14.0"/><text class="lbl small" x="730.0" y="54.0" text-anchor="middle" dominant-baseline="middle">تقرير الجاهزية</text></g><g data-key="r1"><rect class="box pill" x="620.0" y="76" width="220" height="28" rx="14.0"/><text class="lbl small" x="730.0" y="90.0" text-anchor="middle" dominant-baseline="middle">أسماء مهارات الحزمة</text></g><g data-key="w0"><rect class="box pill" x="30.0" y="40" width="220" height="28" rx="14.0"/><text class="lbl small" x="140.0" y="54.0" text-anchor="middle" dominant-baseline="middle">أي جدول كيانات</text></g><g data-key="w1"><rect class="box pill" x="30.0" y="76" width="220" height="28" rx="14.0"/><text class="lbl num small" x="140.0" y="90.0" text-anchor="middle" dominant-baseline="middle" style="direction:ltr;unicode-bidi:isolate">⁦trace_edges⁩</text></g><g data-key="w2"><rect class="box pill" x="30.0" y="112" width="220" height="28" rx="14.0"/><text class="lbl num small" x="140.0" y="126.0" text-anchor="middle" dominant-baseline="middle" style="direction:ltr;unicode-bidi:isolate">⁦progress_entries⁩</text></g><g data-key="w3"><rect class="box pill" x="30.0" y="148" width="220" height="28" rx="14.0"/><text class="lbl num small" x="140.0" y="162.0" text-anchor="middle" dominant-baseline="middle" style="direction:ltr;unicode-bidi:isolate">⁦lessons⁩</text></g><g data-key="w4"><rect class="box pill" x="30.0" y="184" width="220" height="28" rx="14.0"/><text class="lbl small" x="140.0" y="198.0" text-anchor="middle" dominant-baseline="middle">⁦data/*.jsonl⁩، الملفات القانونية</text></g><g data-key="tool"><rect class="box acc strong" x="330.0" y="24" width="210" height="44" rx="6"/><text class="lbl num" x="435.0" y="46.0" text-anchor="middle" dominant-baseline="middle" style="direction:ltr;unicode-bidi:isolate">⁦entity_upsert⁩</text></g><g data-key="n0"><rect class="box pill" x="330.0" y="112" width="210" height="28" rx="14.0"/><text class="lbl small" x="435.0" y="126.0" text-anchor="middle" dominant-baseline="middle">حزمة مفتوحة</text></g></svg>
