<svg class="dia" lang="ar" viewBox="0 0 860 210" width="860" height="210" role="img" aria-label="ما تحتاجه الأداة قبل أن تعمل، وما تقرأه، وما تكتبه. كل ادّعاء مثبَّت بسطر من الخادم." xmlns="http://www.w3.org/2000/svg"><style>svg{font-family:"Noto Naskh Arabic", "Segoe UI", Tahoma, serif;color:#1b1a24;direction:rtl}text{fill:currentColor}.box{fill:#efedf7;stroke:#d9d6e6;stroke-width:1.2}.box.acc{fill:#ebe7fb;stroke:#5b3fd6}.box.good{fill:#e0efe6;stroke:#1f8a4c}.box.bad{fill:#f8e7e7;stroke:#c23b36}.box.warn{fill:#f3ebdd;stroke:#a8700f}.box.frame{fill:none;stroke:#d9d6e6;stroke-dasharray:5 4}.frame .lbl{fill:#5a5770}.edge{fill:none;stroke:#5a5770;stroke-width:1.4}.edge.acc{stroke:#5b3fd6;stroke-width:1.8}.edge.loop{stroke-dasharray:4 3}.lbl{font-size:12px}.lbl.small{font-size:10.5px;fill:#5a5770;paint-order:stroke fill;stroke:#ffffff;stroke-width:4px;stroke-linejoin:round}.lbl.strong{font-weight:600;font-size:13px}.num{font-family:Consolas, Menlo, monospace;font-size:11px;direction:ltr;unicode-bidi:isolate}.arrow{fill:#5a5770}.arrow.acc{fill:#5b3fd6}</style><defs><marker id="ar-fx-package_create-ar" viewBox="0 0 10 10" refX="9" refY="5" markerWidth="7" markerHeight="7" orient="auto-start-reverse"><path d="M0 0L10 5L0 10z" class="arrow"/></marker><marker id="ara-fx-package_create-ar" viewBox="0 0 10 10" refX="9" refY="5" markerWidth="7" markerHeight="7" orient="auto-start-reverse"><path d="M0 0L10 5L0 10z" class="arrow acc"/></marker></defs><g class="frame"><rect class="box frame" x="610.0" y="10" width="240" height="72" rx="8"/><text class="lbl small" x="840.0" y="23.0" text-anchor="start" dominant-baseline="middle">تقرأ</text></g><g class="frame"><rect class="box frame" x="20.0" y="10" width="240" height="180" rx="8"/><text class="lbl small" x="250.0" y="23.0" text-anchor="start" dominant-baseline="middle">تكتب</text></g><g class="frame"><rect class="box frame" x="320.0" y="82" width="230" height="108" rx="8"/><text class="lbl small" x="540.0" y="95.0" text-anchor="start" dominant-baseline="middle">تحتاج</text></g><path class="edge  draw" marker-end="url(#ar-fx-package_create-ar)" d="M330.0 30.0 L300.0 30.0 L300.0 54.0 L250.0 54.0"/><path class="edge  draw" marker-end="url(#ar-fx-package_create-ar)" d="M330.0 40.7 L308.0 40.7 L308.0 90.0 L250.0 90.0"/><path class="edge  draw" marker-end="url(#ar-fx-package_create-ar)" d="M330.0 51.3 L316.0 51.3 L316.0 126.0 L250.0 126.0"/><path class="edge  draw" marker-end="url(#ar-fx-package_create-ar)" d="M330.0 62.0 L324.0 62.0 L324.0 162.0 L250.0 162.0"/><g data-key="r0"><rect class="box pill" x="620.0" y="40" width="220" height="28" rx="14.0"/><text class="lbl small" x="730.0" y="54.0" text-anchor="middle" dominant-baseline="middle">لا شيء</text></g><g data-key="w0"><rect class="box pill" x="30.0" y="40" width="220" height="28" rx="14.0"/><text class="lbl num small" x="140.0" y="54.0" text-anchor="middle" dominant-baseline="middle" style="direction:ltr;unicode-bidi:isolate">⁦entity_types⁩</text></g><g data-key="w1"><rect class="box pill" x="30.0" y="76" width="220" height="28" rx="14.0"/><text class="lbl num small" x="140.0" y="90.0" text-anchor="middle" dominant-baseline="middle" style="direction:ltr;unicode-bidi:isolate">⁦packages⁩</text></g><g data-key="w2"><rect class="box pill" x="30.0" y="112" width="220" height="28" rx="14.0"/><text class="lbl num small" x="140.0" y="126.0" text-anchor="middle" dominant-baseline="middle" style="direction:ltr;unicode-bidi:isolate">⁦README.md⁩</text></g><g data-key="w3"><rect class="box pill" x="30.0" y="148" width="220" height="28" rx="14.0"/><text class="lbl small" x="140.0" y="162.0" text-anchor="middle" dominant-baseline="middle">القفل، مأخوذًا</text></g><g data-key="tool"><rect class="box acc strong" x="330.0" y="24" width="210" height="44" rx="6"/><text class="lbl num" x="435.0" y="46.0" text-anchor="middle" dominant-baseline="middle" style="direction:ltr;unicode-bidi:isolate">⁦package_create⁩</text></g><g data-key="n0"><rect class="box pill" x="330.0" y="112" width="210" height="28" rx="14.0"/><text class="lbl small" x="435.0" y="126.0" text-anchor="middle" dominant-baseline="middle">لا حزمة مفتوحة</text></g><g data-key="n1"><rect class="box pill" x="330.0" y="148" width="210" height="28" rx="14.0"/><text class="lbl small" x="435.0" y="162.0" text-anchor="middle" dominant-baseline="middle">القفل حرًّا</text></g></svg>
