<svg class="dia" lang="en" viewBox="0 0 900 188" width="900" height="188" role="img" aria-label="A mechanical gate reads its tables and is evaluated by a view or by Python in gate_run. A judgment or warn gate is the agent&#x27;s judgment at the stages whose Check names it, recorded in the journal." xmlns="http://www.w3.org/2000/svg"><style>svg{font-family:Georgia, "Times New Roman", serif;color:#efedf7;direction:ltr}text{fill:currentColor}.box{fill:#272435;stroke:#35324a;stroke-width:1.2}.box.acc{fill:#2a2545;stroke:#a78bfa}.box.good{fill:#23322e;stroke:#3fb950}.box.bad{fill:#38222d;stroke:#f85149}.box.warn{fill:#3a312c;stroke:#e3b341}.box.frame{fill:none;stroke:#35324a;stroke-dasharray:5 4}.frame .lbl{fill:#aba7c2}.edge{fill:none;stroke:#aba7c2;stroke-width:1.4}.edge.acc{stroke:#a78bfa;stroke-width:1.8}.edge.loop{stroke-dasharray:4 3}.lbl{font-size:12px}.lbl.small{font-size:10.5px;fill:#aba7c2;paint-order:stroke fill;stroke:#1e1c29;stroke-width:4px;stroke-linejoin:round}.lbl.strong{font-weight:600;font-size:13px}.num{font-family:Consolas, Menlo, monospace;font-size:11px;direction:ltr;unicode-bidi:isolate}.arrow{fill:#aba7c2}.arrow.acc{fill:#a78bfa}</style><defs><marker id="ar-gate-G-DEC-STATUS-en" viewBox="0 0 10 10" refX="9" refY="5" markerWidth="7" markerHeight="7" orient="auto-start-reverse"><path d="M0 0L10 5L0 10z" class="arrow"/></marker><marker id="ara-gate-G-DEC-STATUS-en" viewBox="0 0 10 10" refX="9" refY="5" markerWidth="7" markerHeight="7" orient="auto-start-reverse"><path d="M0 0L10 5L0 10z" class="arrow acc"/></marker></defs><g class="frame"><rect class="box frame" x="10.0" y="10" width="260" height="74" rx="8"/><text class="lbl small" x="20.0" y="23.0" text-anchor="start" dominant-baseline="middle">reads</text></g><g class="frame"><rect class="box frame" x="610.0" y="10" width="270" height="158" rx="8"/><text class="lbl small" x="620.0" y="23.0" text-anchor="start" dominant-baseline="middle">evaluated by</text></g><g class="frame"><rect class="box frame" x="320.0" y="82" width="230" height="74" rx="8"/><text class="lbl small" x="330.0" y="95.0" text-anchor="start" dominant-baseline="middle">severity</text></g><path class="edge  draw" marker-end="url(#ar-gate-G-DEC-STATUS-en)" d="M260.0 54.0 L324.0 54.0 L324.0 46.0 L330.0 46.0"/><path class="edge  draw" marker-end="url(#ar-gate-G-DEC-STATUS-en)" d="M540.0 32.0 L562.0 32.0 L562.0 54.0 L620.0 54.0"/><path class="edge  draw" marker-end="url(#ar-gate-G-DEC-STATUS-en)" d="M540.0 46.0 L554.0 46.0 L554.0 90.0 L620.0 90.0"/><path class="edge  draw" marker-end="url(#ar-gate-G-DEC-STATUS-en)" d="M540.0 60.0 L546.0 60.0 L546.0 132.0 L620.0 132.0"/><g data-key="l0"><rect class="box pill" x="20.0" y="40" width="240" height="28" rx="14.0"/><text class="lbl num small" x="140.0" y="54.0" text-anchor="middle" dominant-baseline="middle" style="direction:ltr;unicode-bidi:isolate">decisions</text></g><g data-key="r0"><rect class="box pill" x="620.0" y="40" width="250" height="28" rx="14.0"/><text class="lbl small" x="745.0" y="54.0" text-anchor="middle" dominant-baseline="middle">Python in gate_run</text></g><g data-key="r1"><rect class="box pill" x="620.0" y="76" width="250" height="28" rx="14.0"/><text class="lbl num small" x="745.0" y="90.0" text-anchor="middle" dominant-baseline="middle" style="direction:ltr;unicode-bidi:isolate">tamheed_server.py L2626</text></g><g data-key="r2"><rect class="box pill" x="620.0" y="112" width="250" height="40" rx="20.0"/><text class="lbl small" x="745.0" y="126.0" text-anchor="middle" dominant-baseline="middle">Decision capture</text><text class="lbl small" x="745.0" y="138.0" text-anchor="middle" dominant-baseline="middle">14</text></g><g data-key="hub"><rect class="box good strong" x="330.0" y="24" width="210" height="44" rx="6"/><text class="lbl num" x="435.0" y="46.0" text-anchor="middle" dominant-baseline="middle" style="direction:ltr;unicode-bidi:isolate">G-DEC-STATUS</text></g><g data-key="b0"><rect class="box pill" x="330.0" y="122" width="210" height="28" rx="14.0"/><text class="lbl small" x="435.0" y="136.0" text-anchor="middle" dominant-baseline="middle">critical, blocking</text></g></svg>
