<svg class="dia" lang="ar" viewBox="0 0 790 260" width="790" height="260" role="img" aria-label="STD8، المجموعة القياسية بلا حالة Review. تنتقل Approved إلى Implemented عند التحقق. تضيف STD9 حالة Review للشرائح وبنود العمل، مرسومة أعلاه." xmlns="http://www.w3.org/2000/svg"><style>svg{font-family:"Noto Naskh Arabic", "Segoe UI", Tahoma, serif;color:#1b1a24;direction:rtl}text{fill:currentColor}.box{fill:#efedf7;stroke:#d9d6e6;stroke-width:1.2}.box.acc{fill:#ebe7fb;stroke:#5b3fd6}.box.good{fill:#e0efe6;stroke:#1f8a4c}.box.bad{fill:#f8e7e7;stroke:#c23b36}.box.warn{fill:#f3ebdd;stroke:#a8700f}.box.frame{fill:none;stroke:#d9d6e6;stroke-dasharray:5 4}.frame .lbl{fill:#5a5770}.edge{fill:none;stroke:#5a5770;stroke-width:1.4}.edge.acc{stroke:#5b3fd6;stroke-width:1.8}.edge.loop{stroke-dasharray:4 3}.lbl{font-size:12px}.lbl.small{font-size:10.5px;fill:#5a5770;paint-order:stroke fill;stroke:#ffffff;stroke-width:4px;stroke-linejoin:round}.lbl.strong{font-weight:600;font-size:13px}.num{font-family:Consolas, Menlo, monospace;font-size:11px;direction:ltr;unicode-bidi:isolate}.arrow{fill:#5a5770}.arrow.acc{fill:#5b3fd6}</style><defs><marker id="ar-life-STD8-ar" viewBox="0 0 10 10" refX="9" refY="5" markerWidth="7" markerHeight="7" orient="auto-start-reverse"><path d="M0 0L10 5L0 10z" class="arrow"/></marker><marker id="ara-life-STD8-ar" viewBox="0 0 10 10" refX="9" refY="5" markerWidth="7" markerHeight="7" orient="auto-start-reverse"><path d="M0 0L10 5L0 10z" class="arrow acc"/></marker></defs><path class="edge  draw" marker-end="url(#ar-life-STD8-ar)" d="M680.0 108.0 L640.0 108.0"/><path class="edge  draw" marker-end="url(#ar-life-STD8-ar)" d="M540.0 108.0 L500.0 108.0"/><path class="edge acc draw" marker-end="url(#ara-life-STD8-ar)" d="M390.0 108.0 L190.0 108.0"/><text class="lbl small" x="290.0" y="98.0" text-anchor="middle" dominant-baseline="middle">مُتحقَّق منه</text><path class="edge  draw" marker-end="url(#ar-life-STD8-ar)" d="M590.0 90.0 L590.0 52.0"/><path class="edge  draw" marker-end="url(#ar-life-STD8-ar)" d="M590.0 126.0 L590.0 160.0"/><path class="edge  draw" marker-end="url(#ar-life-STD8-ar)" d="M640.0 176.0 C670.0 176.0 670.0 108.0 640.0 108.0"/><path class="edge  draw" marker-end="url(#ar-life-STD8-ar)" d="M445.0 90.0 L445.0 71.0 L317.0 71.0 L317.0 52.0"/><path class="edge  draw" marker-end="url(#ar-life-STD8-ar)" d="M125.0 90.0 L125.0 71.0 L273.0 71.0 L273.0 52.0"/><path class="edge  draw" marker-end="url(#ar-life-STD8-ar)" d="M240.0 36.0 L170.0 36.0"/><g data-key="Draft"><rect class="box pill" x="680.0" y="90" width="100" height="36" rx="18.0"/><text class="lbl num" x="730.0" y="108.0" text-anchor="middle" dominant-baseline="middle" style="direction:ltr;unicode-bidi:isolate">⁦Draft⁩</text></g><g data-key="Proposed"><rect class="box pill" x="540.0" y="90" width="100" height="36" rx="18.0"/><text class="lbl num" x="590.0" y="108.0" text-anchor="middle" dominant-baseline="middle" style="direction:ltr;unicode-bidi:isolate">⁦Proposed⁩</text></g><g data-key="Approved"><rect class="box acc pill" x="390.0" y="90" width="110" height="36" rx="18.0"/><text class="lbl num" x="445.0" y="108.0" text-anchor="middle" dominant-baseline="middle" style="direction:ltr;unicode-bidi:isolate">⁦Approved⁩</text></g><g data-key="Implemented"><rect class="box good pill" x="60.0" y="90" width="130" height="36" rx="18.0"/><text class="lbl num" x="125.0" y="108.0" text-anchor="middle" dominant-baseline="middle" style="direction:ltr;unicode-bidi:isolate">⁦Implemented⁩</text></g><g data-key="Rejected"><rect class="box bad pill" x="540.0" y="20" width="100" height="32" rx="16.0"/><text class="lbl num" x="590.0" y="36.0" text-anchor="middle" dominant-baseline="middle" style="direction:ltr;unicode-bidi:isolate">⁦Rejected⁩</text></g><g data-key="Deferred"><rect class="box pill" x="540.0" y="160" width="100" height="32" rx="16.0"/><text class="lbl num" x="590.0" y="176.0" text-anchor="middle" dominant-baseline="middle" style="direction:ltr;unicode-bidi:isolate">⁦Deferred⁩</text></g><g data-key="Superseded"><rect class="box pill" x="240.0" y="20" width="110" height="32" rx="16.0"/><text class="lbl num" x="295.0" y="36.0" text-anchor="middle" dominant-baseline="middle" style="direction:ltr;unicode-bidi:isolate">⁦Superseded⁩</text></g><g data-key="Obsolete"><rect class="box pill" x="60.0" y="20" width="110" height="32" rx="16.0"/><text class="lbl num" x="115.0" y="36.0" text-anchor="middle" dominant-baseline="middle" style="direction:ltr;unicode-bidi:isolate">⁦Obsolete⁩</text></g><g data-key="note"><rect class="box pill" x="60.0" y="212" width="580" height="36" rx="18.0"/><text class="lbl " x="350.0" y="230.0" text-anchor="middle" dominant-baseline="middle">سجلات ⁦ADR⁩ والمعايير والدروس المعتمدة لا تُحرَّر⁦:⁩ تُستبدل ولا تُعدَّل</text></g></svg>
