<svg class="dia" lang="ar" viewBox="0 0 900 172" width="900" height="172" role="img" aria-label="الأدوات التي يسمّيها نص المهارة، بترتيب أول ذكر، وSTOP حيث يعلّم النص توقّف مراسم بخط عريض." xmlns="http://www.w3.org/2000/svg"><style>svg{font-family:"Noto Naskh Arabic", "Segoe UI", Tahoma, serif;color:#1b1a24;direction:rtl}text{fill:currentColor}.box{fill:#efedf7;stroke:#d9d6e6;stroke-width:1.2}.box.acc{fill:#ebe7fb;stroke:#5b3fd6}.box.good{fill:#e0efe6;stroke:#1f8a4c}.box.bad{fill:#f8e7e7;stroke:#c23b36}.box.warn{fill:#f3ebdd;stroke:#a8700f}.box.frame{fill:none;stroke:#d9d6e6;stroke-dasharray:5 4}.frame .lbl{fill:#5a5770}.edge{fill:none;stroke:#5a5770;stroke-width:1.4}.edge.acc{stroke:#5b3fd6;stroke-width:1.8}.edge.loop{stroke-dasharray:4 3}.lbl{font-size:12px}.lbl.small{font-size:10.5px;fill:#5a5770;paint-order:stroke fill;stroke:#ffffff;stroke-width:4px;stroke-linejoin:round}.lbl.strong{font-weight:600;font-size:13px}.num{font-family:Consolas, Menlo, monospace;font-size:11px;direction:ltr;unicode-bidi:isolate}.arrow{fill:#5a5770}.arrow.acc{fill:#5b3fd6}</style><defs><marker id="ar-skill-package-writes-ar" viewBox="0 0 10 10" refX="9" refY="5" markerWidth="7" markerHeight="7" orient="auto-start-reverse"><path d="M0 0L10 5L0 10z" class="arrow"/></marker><marker id="ara-skill-package-writes-ar" viewBox="0 0 10 10" refX="9" refY="5" markerWidth="7" markerHeight="7" orient="auto-start-reverse"><path d="M0 0L10 5L0 10z" class="arrow acc"/></marker></defs><path class="edge  draw" marker-end="url(#ar-skill-package-writes-ar)" d="M739.0 30.0 L727.0 30.0"/><path class="edge  draw" marker-end="url(#ar-skill-package-writes-ar)" d="M596.0 30.0 L584.0 30.0"/><path class="edge  draw" marker-end="url(#ar-skill-package-writes-ar)" d="M453.0 30.0 L441.0 30.0"/><path class="edge  draw" marker-end="url(#ar-skill-package-writes-ar)" d="M310.0 30.0 L298.0 30.0"/><path class="edge  draw" marker-end="url(#ar-skill-package-writes-ar)" d="M167.0 30.0 L155.0 30.0"/><path class="edge  draw" marker-end="url(#ar-skill-package-writes-ar)" d="M89.5 48.0 L89.5 56.0 L804.5 56.0 L804.5 64.0"/><path class="edge  draw" marker-end="url(#ar-skill-package-writes-ar)" d="M739.0 82.0 L727.0 82.0"/><path class="edge  draw" marker-end="url(#ar-skill-package-writes-ar)" d="M596.0 82.0 L584.0 82.0"/><path class="edge  draw" marker-end="url(#ar-skill-package-writes-ar)" d="M453.0 82.0 L441.0 82.0"/><path class="edge  draw" marker-end="url(#ar-skill-package-writes-ar)" d="M310.0 82.0 L298.0 82.0"/><path class="edge  draw" marker-end="url(#ar-skill-package-writes-ar)" d="M167.0 82.0 L155.0 82.0"/><path class="edge  draw" marker-end="url(#ar-skill-package-writes-ar)" d="M89.5 100.0 L89.5 108.0 L804.5 108.0 L804.5 116.0"/><path class="edge  draw" marker-end="url(#ar-skill-package-writes-ar)" d="M739.0 134.0 L727.0 134.0"/><path class="edge  draw" marker-end="url(#ar-skill-package-writes-ar)" d="M596.0 134.0 L584.0 134.0"/><path class="edge  draw" marker-end="url(#ar-skill-package-writes-ar)" d="M453.0 134.0 L441.0 134.0"/><g data-key="t0"><rect class="box pill" x="739.0" y="12" width="131" height="36" rx="18.0"/><text class="lbl num small" x="804.5" y="30.0" text-anchor="middle" dominant-baseline="middle" style="direction:ltr;unicode-bidi:isolate">⁦entity_query⁩</text></g><g data-key="t1"><rect class="box pill" x="596.0" y="12" width="131" height="36" rx="18.0"/><text class="lbl num small" x="661.5" y="30.0" text-anchor="middle" dominant-baseline="middle" style="direction:ltr;unicode-bidi:isolate">⁦readiness_check⁩</text></g><g data-key="t2"><rect class="box pill" x="453.0" y="12" width="131" height="36" rx="18.0"/><text class="lbl num small" x="518.5" y="30.0" text-anchor="middle" dominant-baseline="middle" style="direction:ltr;unicode-bidi:isolate">⁦gate_run⁩</text></g><g data-key="t3"><rect class="box pill" x="310.0" y="12" width="131" height="36" rx="18.0"/><text class="lbl num small" x="375.5" y="30.0" text-anchor="middle" dominant-baseline="middle" style="direction:ltr;unicode-bidi:isolate">⁦package_verify⁩</text></g><g data-key="t4"><rect class="box pill" x="167.0" y="12" width="131" height="36" rx="18.0"/><text class="lbl num small" x="232.5" y="30.0" text-anchor="middle" dominant-baseline="middle" style="direction:ltr;unicode-bidi:isolate">⁦progress_update⁩</text></g><g data-key="t5"><rect class="box pill" x="24.0" y="12" width="131" height="36" rx="18.0"/><text class="lbl num small" x="89.5" y="30.0" text-anchor="middle" dominant-baseline="middle" style="direction:ltr;unicode-bidi:isolate">⁦audit_record⁩</text></g><g data-key="t6"><rect class="box pill" x="739.0" y="64" width="131" height="36" rx="18.0"/><text class="lbl num small" x="804.5" y="82.0" text-anchor="middle" dominant-baseline="middle" style="direction:ltr;unicode-bidi:isolate">⁦trace_query⁩</text></g><g data-key="t7"><rect class="box pill" x="596.0" y="64" width="131" height="36" rx="18.0"/><text class="lbl num small" x="661.5" y="82.0" text-anchor="middle" dominant-baseline="middle" style="direction:ltr;unicode-bidi:isolate">⁦server_info⁩</text></g><g data-key="t8"><rect class="box pill" x="453.0" y="64" width="131" height="36" rx="18.0"/><text class="lbl num small" x="518.5" y="82.0" text-anchor="middle" dominant-baseline="middle" style="direction:ltr;unicode-bidi:isolate">⁦entity_export⁩</text></g><g data-key="t9"><rect class="box pill" x="310.0" y="64" width="131" height="36" rx="18.0"/><text class="lbl num small" x="375.5" y="82.0" text-anchor="middle" dominant-baseline="middle" style="direction:ltr;unicode-bidi:isolate">⁦entity_upsert⁩</text></g><g data-key="t10"><rect class="box pill" x="167.0" y="64" width="131" height="36" rx="18.0"/><text class="lbl num small" x="232.5" y="82.0" text-anchor="middle" dominant-baseline="middle" style="direction:ltr;unicode-bidi:isolate">⁦work_bind⁩</text></g><g data-key="t11"><rect class="box pill" x="24.0" y="64" width="131" height="36" rx="18.0"/><text class="lbl num small" x="89.5" y="82.0" text-anchor="middle" dominant-baseline="middle" style="direction:ltr;unicode-bidi:isolate">⁦package_close⁩</text></g><g data-key="t12"><rect class="box pill" x="739.0" y="116" width="131" height="36" rx="18.0"/><text class="lbl num small" x="804.5" y="134.0" text-anchor="middle" dominant-baseline="middle" style="direction:ltr;unicode-bidi:isolate">⁦export_html⁩</text></g><g data-key="t13"><rect class="box pill" x="596.0" y="116" width="131" height="36" rx="18.0"/><text class="lbl num small" x="661.5" y="134.0" text-anchor="middle" dominant-baseline="middle" style="direction:ltr;unicode-bidi:isolate">⁦handoff_emit⁩</text></g><g data-key="t14"><rect class="box pill" x="453.0" y="116" width="131" height="36" rx="18.0"/><text class="lbl num small" x="518.5" y="134.0" text-anchor="middle" dominant-baseline="middle" style="direction:ltr;unicode-bidi:isolate">⁦package_open⁩</text></g><g data-key="t15"><rect class="box pill" x="310.0" y="116" width="131" height="36" rx="18.0"/><text class="lbl num small" x="375.5" y="134.0" text-anchor="middle" dominant-baseline="middle" style="direction:ltr;unicode-bidi:isolate">⁦package_unlock⁩</text></g></svg>
